<svg width="16" height="16" viewBox="0 0 16 16" fill="none" xmlns="http://www.w3.org/2000/svg">
<g clip-path="url(#clip0_8_8)">
<path d="M14.5 0.190625C14.7969 -0.0749998 15.25 -0.0624998 15.5312 0.21875L15.7812 0.46875C16.0625 0.75 16.075 1.20313 15.8094 1.5L13.1281 4.49687C13.0469 4.5875 13 4.70625 13 4.83125V5.5C13 5.775 12.775 6 12.5 6H12.0063C11.8625 6 11.7281 6.05938 11.6344 6.16563L3.14687 15.6531C2.94687 15.875 2.66563 16 2.36875 16C2.09375 16 1.82812 15.8906 1.63437 15.6938L0.303125 14.3656C0.109375 14.1688 0 13.9063 0 13.6313C0 13.3344 0.125 13.0531 0.346875 12.8562L3.83437 9.7375C3.94062 9.64375 4 9.50625 4 9.36563V8.5C4 8.225 4.225 8 4.5 8H5.58125C5.70313 8 5.82188 7.95312 5.91563 7.87187L14.5 0.190625ZM13.5 9C13.6125 9 13.7094 9.075 13.7406 9.18125L14.2031 10.7969L15.8188 11.2594C15.925 11.2906 16 11.3875 16 11.5C16 11.6125 15.925 11.7094 15.8188 11.7406L14.2031 12.2031L13.7406 13.8188C13.7094 13.925 13.6125 14 13.5 14C13.3875 14 13.2906 13.925 13.2594 13.8188L12.7969 12.2031L11.1812 11.7406C11.075 11.7094 11 11.6125 11 11.5C11 11.3875 11.075 11.2906 11.1812 11.2594L12.7969 10.7969L13.2594 9.18125C13.2906 9.075 13.3875 9 13.5 9ZM2.74062 2.18125L3.20312 3.79688L4.81875 4.25938C4.925 4.29063 5 4.3875 5 4.5C5 4.6125 4.925 4.70937 4.81875 4.74062L3.20312 5.20312L2.74062 6.81875C2.70937 6.925 2.6125 7 2.5 7C2.3875 7 2.29063 6.925 2.25938 6.81875L1.79688 5.20312L0.18125 4.74062C0.075 4.70937 0 4.6125 0 4.5C0 4.3875 0.075 4.29063 0.18125 4.25938L1.79688 3.79688L2.25938 2.18125C2.29063 2.075 2.3875 2 2.5 2C2.6125 2 2.70937 2.075 2.74062 2.18125ZM6.5 1.96567e-07C6.61563 1.96567e-07 6.71563 0.0781252 6.74375 0.190625L6.95625 1.04375L7.80937 1.25625C7.92187 1.28438 8 1.38438 8 1.5C8 1.61563 7.92187 1.71563 7.80937 1.74375L6.95625 1.95625L6.74375 2.80938C6.71563 2.92188 6.61563 3 6.5 3C6.38437 3 6.28437 2.92188 6.25625 2.80938L6.04375 1.95625L5.19063 1.74375C5.07813 1.71563 5 1.61563 5 1.5C5 1.38438 5.07813 1.28438 5.19063 1.25625L6.04375 1.04375L6.25625 0.190625C6.28437 0.0781252 6.38437 1.96567e-07 6.5 1.96567e-07Z" fill="#CBA81E"/>
</g>
<defs>
<clipPath id="clip0_8_8">
<rect width="16" height="16" fill="white"/>
</clipPath>
</defs>
</svg>
